<?xml version="1.0" ?><svg viewBox="0 0 512 512" xmlns="http://www.w3.org/2000/svg" xmlns:xlink="http://www.w3.org/1999/xlink"><style>:root>svg{display:none}:root>svg:target{display:block}</style><svg viewBox="0 0 512 512" id="facebook" xmlns="http://www.w3.org/2000/svg"><path d="M256 512C114.62 512 0 397.38 0 256 0 114.611 114.62 0 256 0s256 114.611 256 256c0 141.38-114.62 256-256 256z" fill="#3c599b" fill-rule="evenodd"/><path d="M320.953 206.741h-44.241v-29.016c0-10.897 7.222-13.437 12.309-13.437h31.22v-47.905l-42.997-.168c-47.731 0-58.593 35.729-58.593 58.593v31.933h-27.604v49.363h27.604v139.68h58.06v-139.68h39.179l5.063-49.363z" fill="#fff"/></svg><svg viewBox="0 0 512 512" id="linkedin" xmlns="http://www.w3.org/2000/svg"><path d="M511.672 255.93c0 141.385-114.615 256-256 256s-256-114.615-256-256 114.615-256 256-256 256 114.615 256 256z" fill="#017bbe"/><g fill="#fff"><path d="M112.573 203.761h63.599V400.71h-63.599zM144.783 175.393c17.44 0 31.59-14.013 31.59-31.284 0-17.29-14.15-31.285-31.59-31.285-17.452 0-31.59 13.995-31.59 31.285 0 17.27 14.138 31.284 31.59 31.284zM403.517 291.893c-.375-10.338 1.962-44.49-22.773-68.916-12.97-12.813-19.52-18.845-51.092-18.845-25.367 0-49.136 16.414-58.562 29.468v-28.851h-64.78v195.017h64.78v-111.17c0-16.012 8.315-33 30.943-33 22.654 0 36.773 18.246 36.773 39.182v104.988h64.796V291.893h-.085z"/></g></svg><svg viewBox="0 0 512 512" id="news" xmlns="http://www.w3.org/2000/svg"><path d="M511.672 255.93c0 141.385-114.615 256-256 256s-256-114.615-256-256 114.615-256 256-256 256 114.615 256 256z" fill="#ea7819"/><path d="M152.622 255.414c29.323 0 56.889 11.454 77.604 32.288 20.754 20.835 32.18 48.585 32.18 78.126h45.188c0-85.805-69.523-155.607-154.972-155.607v45.193zm.07-80.11c104.508 0 189.536 85.491 189.536 190.581h45.188c0-130.012-105.303-235.77-234.723-235.77v45.188zm62.49 159.012c0 17.282-14.018 31.299-31.3 31.299-17.28 0-31.298-14.013-31.298-31.299 0-17.29 14.013-31.298 31.294-31.298s31.303 14.008 31.303 31.298z" fill="#fff"/></svg><svg viewBox="0 0 512 512" id="twiter" xmlns="http://www.w3.org/2000/svg"><path d="M511.672 255.93c0 141.385-114.615 256-256 256s-256-114.615-256-256 114.615-256 256-256 256 114.615 256 256z" fill="#5eaade"/><path d="M317.027 117.34h10.707c.462.438.921.559 1.38 0h1.727c-.042.927.741.573 1.134.656 1.797.336 3.652.556 5.428.941 13.853 2.941 25.744 9.431 35.705 19.399.671.688 1.252 1.109 2.355.874 11.9-2.504 23.333-6.319 34.212-11.698 3.117-1.517 6.147-3.16 9.535-4.91-2.742 8.172-6.654 15.349-11.85 21.854-5.228 6.543-11.509 11.953-18.584 16.509 13.734-1.563 26.841-5.16 39.952-10.755-.74 1.074-1.14 1.677-1.566 2.302-9.005 12.727-19.815 23.735-32.504 32.948-.95.69-1.259 1.413-1.242 2.522.052 4.321.226 8.642.097 12.946-.289 11.363-1.669 22.558-4.003 33.655-4.62 22.072-12.655 42.918-24.064 62.471-11.005 18.794-24.66 35.456-41.133 49.876-15.016 13.099-31.714 23.623-50.119 31.506a197.266 197.266 0 01-47.487 13.518c-6.153.957-12.313 1.73-18.504 2.103-.494.03-1.335-.371-1.515.604h-2.758c-.69-.522-1.396-.438-2.087 0H182.48c-.462-.438-.92-.559-1.38 0h-3.465c.025-.051.077-.102.11-.137.025-.031.067-.133.067-.133-.546-.423-1.208-.337-1.82-.388-11.724-.84-23.275-2.809-34.646-5.684-18.166-4.656-35.33-11.732-51.51-21.096-2.07-1.195-4.096-2.505-6.564-4.001 39.016 3.884 73.657-5.668 104.827-28.882-36.64-1.465-59.44-26.646-66.011-48.703 10.479 1.797 20.825 1.563 31.124-1.242-16.38-3.75-29.99-11.923-40.521-24.85-10.556-12.979-15.577-27.84-15.632-44.754 5.076 2.776 10.09 4.827 15.343 6.254 5.304 1.465 10.684 2.354 16.507 2.508-37.144-25.873-36.64-70.037-21.47-93.238a191.912 191.912 0 0013.425 14.696c12.974 12.81 27.41 23.753 43.377 32.679 27.32 15.248 56.662 23.705 87.973 25.537.918.066 1.19-.085.943-1.109-.844-3.414-1.284-6.926-1.47-10.453-.793-15.186 2.65-29.339 11.124-42.065 11.926-17.938 28.713-28.545 50.296-31.637.382-.052 1.162.284 1.146-.624h1.727c.35.439.689.439 1.049.001z" fill="#fff"/></svg><svg viewBox="0 0 512 512" id="youtube" xmlns="http://www.w3.org/2000/svg"><path d="M511.672 255.93c0 141.385-114.615 256-256 256s-256-114.615-256-256 114.615-256 256-256 256 114.615 256 256z" fill="#cc181e"/><g fill="#fff"><path d="M332.301 289.406c-2.41 0-4.152 1.154-4.793 3.115-.256.871-.564-.051-.564 6.088v10.664h10.434v-10.664c0-5.717-.334-4.87-.59-5.754-.667-2.166-2.333-3.449-4.487-3.449zm-50.295 3.68c-2.23 0-3.947 1.32-4.588 3.486-.309.986-.643 2.936-.643 9.51v19.586c0 6.357.385 8.395.72 9.445.716 2.295 2.41 3.615 4.64 3.615 2.307 0 3.998-1.371 4.69-3.769.282-1.063.642-3.179.642-10.101v-18.777c0-6.19-.438-8.268-.744-9.279-.744-2.345-2.46-3.716-4.717-3.716zm86.03-28.211c-1.923-17.56-17.483-31.89-34.99-33.121a1806.787 1806.787 0 00-154.118 0c-17.457 1.23-33.043 15.561-34.965 33.121a595.226 595.226 0 000 82.8c1.922 17.547 17.508 31.89 34.965 33.12 51.424 2.205 102.718 2.179 154.117 0 17.508-1.23 33.068-15.573 34.99-33.12a594.61 594.61 0 000-82.8zm-159.602 5.344h-14.586v81.826h-15.277v-81.826h-14.535v-15.521h44.398v15.521zm42.145 81.929H235.94l.205-4.076-4.563-1.129c-1.154 2.27-2.563 3.961-4.152 5.063-1.564 1.052-3.332 1.563-5.383 1.563-2.359 0-4.334-.5-5.82-1.474-1.537-1.013-2.64-2.333-3.357-4.012a18.768 18.768 0 01-1.512-5.87c-.232-2.18-.334-6.652-.334-13.317v-50.692h14.457v46.501c0 8.396.258 10.536.514 11.472.564 2.179 2.357 3.486 4.793 3.486 2.54 0 4.385-1.359 4.896-3.641.23-.948.461-3.114.461-11.906v-45.912h14.434v73.944zm51.32-53.435v38.656c0-.269-.31 4.179-.872 7.024-.539 2.524-1.719 4.653-3.64 6.536-1.847 1.782-4 2.641-6.513 2.641-1.82 0-3.436-.512-5.023-1.563-1.666-1.103-3.205-2.833-4.64-5.14l-3.206-5.178-1.178 6.023-.846 4.332h-13.664v-97.347h14.457v35.273l4.41-6.806c1.385-2.114 2.922-3.704 4.537-4.704 1.615-1 3.281-1.475 5.152-1.475 2.205 0 4.127.462 5.691 1.334a8.522 8.522 0 013.461 3.602c.871 1.705 1.41 3.346 1.563 4.935.875 8.011.31 11.998.31 11.857zm49.988 18.598h-24.943v16.471c0 5.075.41 6.742.77 7.639.77 1.896 2.461 2.986 4.64 2.986 2.487 0 4.384-1.307 5.204-3.563.59-1.629.896-4.371.896-8.602v-7.934h13.434v3.436c0 4.64-.258 8.241-.719 10.664-.436 2.307-1.486 4.818-3.152 7.51-1.59 2.539-3.59 4.5-5.998 5.742-2.385 1.27-5.537 1.91-9.28 1.91-3.692 0-6.948-.653-9.74-1.922-2.692-1.27-4.82-2.986-6.308-5.152a22.133 22.133 0 01-3.256-7.537c-.615-2.858-.947-7.139-.947-10.062V306.21c0-9.19.717-14.344 2.102-17.982 1.307-3.486 3.408-6.063 6.383-7.883 2.973-1.846 6.512-2.781 10.434-2.781 4.844 0 8.844 1.127 11.92 3.318 3.127 2.256 5.281 5.166 6.563 8.896 1.307 3.908 2 12.278 2 19.533v8zM204.768 168.552l-12.125-38.991h-10.97L198 185.202l.078.436V225.167h12.87v-39.542l.101-.448 14.15-55.615h-10.998c-3.228 14.688-7.304 28.813-9.433 38.99zM264.088 162.502c-1.463-2.308-3.615-4.217-6.436-5.704-2.845-1.551-6.408-2.307-10.509-2.307-4.82 0-8.793 1.179-11.793 3.5-2.947 2.294-4.922 5.204-6.049 8.946-1.205 3.974-1.795 9.716-1.795 17.034v13.395c0 6.78.334 11.895 1 15.15.615 3.05 1.666 5.665 3.076 7.78 1.385 2.051 3.385 3.615 5.973 4.666 2.82 1.115 6.307 1.705 10.408 1.705 3.641 0 6.844-.667 9.587-1.987 2.641-1.243 4.742-3.115 6.383-5.742a22.738 22.738 0 003.307-8.498c.54-3.268.82-8.6.82-15.855v-12.433c0-5.588-.309-9.729-.87-12.356-.54-2.449-1.59-4.91-3.102-7.294zm-10.92 43.861c0 5.383-.41 7.293-.769 8.357-.795 2.23-2.46 3.512-4.615 3.512-2.152 0-3.82-1.358-4.613-3.743-.359-1.115-.795-3.114-.795-8.946v-29.672c0-6.28.41-8.293.82-9.434.795-2.243 2.486-3.524 4.64-3.524 2.18 0 3.845 1.32 4.614 3.64.36 1.103.717 3.089.717 9.318v30.492zM305.18 154.658v46.361c0 9.446-.256 9.203-.514 10.331-.28 1.269-1.332 4.217-5.023 4.217-3.486 0-4.588-2.82-4.896-4.012-.28-1.166-.59-.846-.59-9.92v-46.976h-14.893v46.489c0 7.011.127 11.728.332 13.984.18 2.025.666 3.986 1.461 5.845.72 1.666 1.795 3.012 3.334 4.05 1.588 1.089 3.691 1.641 6.254 1.641 2.23 0 4.102-.564 5.768-1.73 1.641-1.154 3-2.858 4.152-5.217l4.615 1.872-.18 3.576h15.074V154.66H305.18z"/></g></svg></svg>