<?xml version="1.0" ?><svg height="512" id="Layer_1" version="1.1" viewBox="0 0 512 512" width="512" xml:space="preserve" xmlns="http://www.w3.org/2000/svg" xmlns:cc="http://creativecommons.org/ns#" xmlns:dc="http://purl.org/dc/elements/1.1/" xmlns:inkscape="http://www.inkscape.org/namespaces/inkscape" xmlns:rdf="http://www.w3.org/1999/02/22-rdf-syntax-ns#" xmlns:sodipodi="http://sodipodi.sourceforge.net/DTD/sodipodi-0.dtd" xmlns:svg="http://www.w3.org/2000/svg"><defs id="defs7"/><g id="g2986"><path d="M 256,512 C 114.61973,512 0,397.38027 0,256 0,114.6112 114.61973,0 256,0 397.38027,0 512,114.6112 512,256 512,397.38027 397.38027,512 256,512 z" id="path3" style="fill:#3c599b;fill-opacity:1;fill-rule:evenodd"/><path d="m 320.95329,206.74107 h -44.24162 v -29.01601 c 0,-10.89692 7.22213,-13.4374 12.30892,-13.4374 5.07517,0 31.22085,0 31.22085,0 v -47.90477 l -42.99733,-0.16782 c -47.73122,0 -58.59341,35.72891 -58.59341,58.59334 v 31.93266 h -27.60399 v 49.36309 h 27.60398 c 0,63.35027 0,139.68077 0,139.68077 h 58.06098 c 0,0 0,-77.08281 0,-139.68077 h 39.17799 l 5.06363,-49.36309 z" id="path2989" style="fill:#ffffff"/></g></svg>